# xmcd
#
# Track frame offsets: 
#        150
#        18662
#        50225
#        64550
#        77887
#        93925
#        105737
#        137712
#        148737
#
# Disc length: 2344 seconds
#
# Revision: 0
# Processed by: cddbd v1.5.1PL0 Copyright (c) Steve Scherf et al.
# Submitted via: ExactAudioCopy v0.95a5
#
DISCID=7e092609
DTITLE=Livin' Blues - Rockin' at the Tweedmill
DYEAR=1972
DGENRE=Blues
TTITLE0=Ain't No Use Crying
TTITLE1=Diving Duck Blues
TTITLE2=Eye to Eye
TTITLE3=Please Don't Leave Me
TTITLE4=Sweet Susanne
TTITLE5=Shady Girl, Shady Girl
TTITLE6=Fool on You
TTITLE7=Tongue'n'Groove
TTITLE8=You're a Stranger
EXTD=
EXTT0=
EXTT1=
EXTT2=
EXTT3=
EXTT4=
EXTT5=
EXTT6=
EXTT7=
EXTT8=
PLAYORDER=
